<svg width="13" height="18" viewBox="0 0 13 18" fill="none" xmlns="http://www.w3.org/2000/svg">
<path d="M0.389221 0C0.389221 2.31429 1.72636 4.42286 3.81779 5.41714V18H5.53208V12H7.24636V18H8.96065V5.40857C11.0521 4.42286 12.3892 2.31429 12.3892 0H10.6749C10.6749 1.13664 10.2234 2.22673 9.41968 3.03046C9.02171 3.42842 8.54926 3.74411 8.02929 3.95948C7.50933 4.17486 6.95203 4.28571 6.38922 4.28571C5.25258 4.28571 4.16249 3.83419 3.35876 3.03046C2.55504 2.22673 2.10351 1.13664 2.10351 0M6.38922 0C5.43779 0 4.67494 0.762857 4.67494 1.71429C4.67494 2.66571 5.43779 3.42857 6.38922 3.42857C7.34065 3.42857 8.10351 2.66571 8.10351 1.71429C8.10351 0.762857 7.34065 0 6.38922 0Z" fill="#525560"/>
</svg>
