<svg width="20" height="19" viewBox="0 0 20 19" fill="none" xmlns="http://www.w3.org/2000/svg">
<path d="M9.97226 3.83337L16.1112 7.37504V14.4584L9.97226 18L3.83337 14.4584V7.37504L9.97226 3.83337Z" stroke="url(#paint0_linear_18_181)" stroke-width="2" stroke-linejoin="round"/>
<path d="M9.97222 1V3.68421M3.69167 7.26316L9.97222 10.8421M9.97222 10.8421L16.2528 7.26316M9.97222 10.8421V18M16.2528 14.4211L18.9444 15.7632M1 15.7632L3.69167 14.4211" stroke="url(#paint1_linear_18_181)" stroke-width="2" stroke-linecap="round" stroke-linejoin="round"/>
<path d="M13.0417 5.72217L16.1112 7.47614V10.9841M6.90282 5.72217L3.83337 7.47614V10.9841M6.90282 16.246L9.97226 17.9999L13.0417 16.246" stroke="url(#paint2_linear_18_181)" stroke-width="2" stroke-linejoin="round"/>
<defs>
<linearGradient id="paint0_linear_18_181" x1="9.98212" y1="7.68754" x2="9.84326" y2="17.9982" gradientUnits="userSpaceOnUse">
<stop stop-color="#FF1A35"/>
<stop offset="1" stop-color="#A01F2E"/>
</linearGradient>
<linearGradient id="paint1_linear_18_181" x1="9.98662" y1="5.625" x2="9.8498" y2="17.9985" gradientUnits="userSpaceOnUse">
<stop stop-color="#FF1A35"/>
<stop offset="1" stop-color="#A01F2E"/>
</linearGradient>
<linearGradient id="paint2_linear_18_181" x1="9.98212" y1="9.06245" x2="9.87781" y2="17.9987" gradientUnits="userSpaceOnUse">
<stop stop-color="#FF1A35"/>
<stop offset="1" stop-color="#A01F2E"/>
</linearGradient>
</defs>
</svg>
