<svg width="52" height="55" viewBox="0 0 52 55" fill="none" xmlns="http://www.w3.org/2000/svg">
<g filter="url(#filter0_d_3_107)">
<path d="M25.0324 12.9699L27.7334 14.1202C27.939 14.2077 28.032 14.4431 27.9456 14.6443L18.2555 37.1965C18.1691 37.3976 17.9338 37.4932 17.7282 37.4057L15.0272 36.2553C14.8216 36.1678 14.7286 35.9324 14.815 35.7312L24.5051 13.1791C24.5916 12.9779 24.8268 12.8823 25.0324 12.9699Z" fill="url(#paint0_linear_3_107)" stroke="url(#paint1_linear_3_107)"/>
<path d="M27.636 32.6552L27.3412 33.3504H28.0963H36.8798C37.2186 33.3504 37.5 33.628 37.5 33.9802V36.9895C37.5 37.3553 37.2073 37.6452 36.8542 37.6452C36.8542 37.6452 36.8541 37.6452 36.8541 37.6452L25.2135 37.6431L25.2114 37.6431L24.2325 37.6388L24.2323 37.6388C22.92 37.6337 22.0266 36.2735 22.5526 35.043L22.0928 34.8465L22.5526 35.043L31.8566 13.276L31.8569 13.2752C31.9697 13.0101 32.2727 12.891 32.5304 13.0026L32.5308 13.0028L34.9832 14.0613L34.9842 14.0617C35.2294 14.167 35.3505 14.4592 35.2413 14.7187C35.2413 14.7189 35.2412 14.719 35.2411 14.7192L27.636 32.6552Z" fill="url(#paint2_linear_3_107)" stroke="url(#paint3_linear_3_107)"/>
</g>
<defs>
<filter id="filter0_d_3_107" x="0.281982" y="0.437805" width="51.718" height="53.7075" filterUnits="userSpaceOnUse" color-interpolation-filters="sRGB">
<feFlood flood-opacity="0" result="BackgroundImageFix"/>
<feColorMatrix in="SourceAlpha" type="matrix" values="0 0 0 0 0 0 0 0 0 0 0 0 0 0 0 0 0 0 127 0" result="hardAlpha"/>
<feOffset dy="2"/>
<feGaussianBlur stdDeviation="7"/>
<feComposite in2="hardAlpha" operator="out"/>
<feColorMatrix type="matrix" values="0 0 0 0 0.694118 0 0 0 0 0.117647 0 0 0 0 0.188235 0 0 0 0.6 0"/>
<feBlend mode="normal" in2="BackgroundImageFix" result="effect1_dropShadow_3_107"/>
<feBlend mode="normal" in="SourceGraphic" in2="effect1_dropShadow_3_107" result="shape"/>
</filter>
<linearGradient id="paint0_linear_3_107" x1="23.7544" y1="19.6721" x2="15.13" y2="36.7595" gradientUnits="userSpaceOnUse">
<stop stop-color="#FF1A35"/>
<stop offset="1" stop-color="#A01F2E"/>
</linearGradient>
<linearGradient id="paint1_linear_3_107" x1="23.7544" y1="19.6721" x2="15.13" y2="36.7595" gradientUnits="userSpaceOnUse">
<stop stop-color="#FF1A35"/>
<stop offset="1" stop-color="#A01F2E"/>
</linearGradient>
<linearGradient id="paint2_linear_3_107" x1="29.9625" y1="19.4484" x2="29.6145" y2="38.1388" gradientUnits="userSpaceOnUse">
<stop stop-color="#FF1A35"/>
<stop offset="1" stop-color="#A01F2E"/>
</linearGradient>
<linearGradient id="paint3_linear_3_107" x1="29.9625" y1="19.4484" x2="29.6145" y2="38.1388" gradientUnits="userSpaceOnUse">
<stop stop-color="#FF1A35"/>
<stop offset="1" stop-color="#A01F2E"/>
</linearGradient>
</defs>
</svg>
